<?xml version="1.0" encoding="UTF-8" standalone="no"?>
<!-- Created with Inkscape (http://www.inkscape.org/) -->

<svg
   width="210mm"
   height="127mm"
   viewBox="0 0 210 127"
   version="1.1"
   id="svg1"
   xmlns:xlink="http://www.w3.org/1999/xlink"
   xmlns="http://www.w3.org/2000/svg"
   xmlns:svg="http://www.w3.org/2000/svg"
   xmlns:rdf="http://www.w3.org/1999/02/22-rdf-syntax-ns#"
   xmlns:cc="http://creativecommons.org/ns#"
   xmlns:dc="http://purl.org/dc/elements/1.1/">
  <title
     id="title1">Sunglasses Filter</title>
  <defs
     id="defs1">
    <linearGradient
       id="linearGradient79">
      <stop
         style="stop-color:#717171;stop-opacity:1;"
         offset="0"
         id="stop79" />
      <stop
         style="stop-color:#e6e6e6;stop-opacity:1;"
         offset="0.4964706"
         id="stop81" />
      <stop
         style="stop-color:#585858;stop-opacity:1;"
         offset="1"
         id="stop80" />
    </linearGradient>
    <linearGradient
       id="linearGradient78">
      <stop
         style="stop-color:#ff0084;stop-opacity:1;"
         offset="0"
         id="stop77" />
      <stop
         style="stop-color:#7afff0;stop-opacity:1;"
         offset="0.69882351"
         id="stop78" />
    </linearGradient>
    <linearGradient
       id="linearGradient54">
      <stop
         style="stop-color:#ff0084;stop-opacity:1;"
         offset="0"
         id="stop54" />
      <stop
         style="stop-color:#7afff0;stop-opacity:1;"
         offset="0.69999999"
         id="stop55" />
    </linearGradient>
    <linearGradient
       xlink:href="#linearGradient78"
       id="linearGradient55"
       x1="22.413151"
       y1="78.160492"
       x2="92.502441"
       y2="78.160492"
       gradientUnits="userSpaceOnUse"
       gradientTransform="matrix(1.2144902,0,0,1.251937,14.320422,-31.803982)" />
    <linearGradient
       xlink:href="#linearGradient54"
       id="linearGradient56"
       gradientUnits="userSpaceOnUse"
       gradientTransform="matrix(1.2144902,0,0,1.251937,104.27884,-31.803982)"
       x1="22.413151"
       y1="78.160492"
       x2="92.502441"
       y2="78.160492" />
    <radialGradient
       xlink:href="#linearGradient79"
       id="radialGradient80"
       cx="103.39578"
       cy="78.160339"
       fx="103.39578"
       fy="78.160339"
       r="92.310661"
       gradientTransform="matrix(1,0,0,0.38273929,0,48.245308)"
       gradientUnits="userSpaceOnUse" />
    <radialGradient
       xlink:href="#linearGradient79"
       id="radialGradient81"
       gradientUnits="userSpaceOnUse"
       gradientTransform="matrix(1,0,0,0.38273929,0,32.370298)"
       cx="103.39578"
       cy="78.160339"
       fx="103.39578"
       fy="78.160339"
       r="92.310661" />
    <radialGradient
       xlink:href="#linearGradient79"
       id="radialGradient82"
       gradientUnits="userSpaceOnUse"
       gradientTransform="matrix(1,0,0,0.38273929,0,32.370298)"
       cx="103.39578"
       cy="78.160339"
       fx="103.39578"
       fy="78.160339"
       r="92.310661" />
    <radialGradient
       xlink:href="#linearGradient79"
       id="radialGradient83"
       gradientUnits="userSpaceOnUse"
       gradientTransform="matrix(1,0,0,0.38273929,0,32.370298)"
       cx="103.39578"
       cy="78.160339"
       fx="103.39578"
       fy="78.160339"
       r="92.310661" />
    <radialGradient
       xlink:href="#linearGradient79"
       id="radialGradient84"
       gradientUnits="userSpaceOnUse"
       gradientTransform="matrix(1,0,0,0.38273929,0,32.370298)"
       cx="103.39578"
       cy="78.160339"
       fx="103.39578"
       fy="78.160339"
       r="92.310661" />
    <radialGradient
       xlink:href="#linearGradient79"
       id="radialGradient85"
       gradientUnits="userSpaceOnUse"
       gradientTransform="matrix(1,0,0,0.38273929,0,32.370298)"
       cx="103.39578"
       cy="78.160339"
       fx="103.39578"
       fy="78.160339"
       r="92.310661" />
    <radialGradient
       xlink:href="#linearGradient79"
       id="radialGradient86"
       gradientUnits="userSpaceOnUse"
       gradientTransform="matrix(1,0,0,0.38273929,0,32.370298)"
       cx="103.39578"
       cy="78.160339"
       fx="103.39578"
       fy="78.160339"
       r="92.310661" />
    <radialGradient
       xlink:href="#linearGradient79"
       id="radialGradient87"
       gradientUnits="userSpaceOnUse"
       gradientTransform="matrix(1,0,0,0.38273929,0,32.370298)"
       cx="103.39578"
       cy="78.160339"
       fx="103.39578"
       fy="78.160339"
       r="92.310661" />
    <radialGradient
       xlink:href="#linearGradient79"
       id="radialGradient88"
       gradientUnits="userSpaceOnUse"
       gradientTransform="matrix(1,0,0,0.38273929,0,32.370298)"
       cx="103.39578"
       cy="78.160339"
       fx="103.39578"
       fy="78.160339"
       r="92.310661" />
    <radialGradient
       xlink:href="#linearGradient79"
       id="radialGradient89"
       gradientUnits="userSpaceOnUse"
       gradientTransform="matrix(1,0,0,0.38273929,0,32.370298)"
       cx="103.39578"
       cy="78.160339"
       fx="103.39578"
       fy="78.160339"
       r="92.310661" />
    <radialGradient
       xlink:href="#linearGradient79"
       id="radialGradient90"
       gradientUnits="userSpaceOnUse"
       gradientTransform="matrix(1,0,0,0.38273929,0,32.370298)"
       cx="103.39578"
       cy="78.160339"
       fx="103.39578"
       fy="78.160339"
       r="92.310661" />
    <radialGradient
       xlink:href="#linearGradient79"
       id="radialGradient91"
       gradientUnits="userSpaceOnUse"
       gradientTransform="matrix(1,0,0,0.38273929,0,32.370298)"
       cx="103.39578"
       cy="78.160339"
       fx="103.39578"
       fy="78.160339"
       r="92.310661" />
    <radialGradient
       xlink:href="#linearGradient79"
       id="radialGradient92"
       gradientUnits="userSpaceOnUse"
       gradientTransform="matrix(1,0,0,0.38273929,0,32.370298)"
       cx="103.39578"
       cy="78.160339"
       fx="103.39578"
       fy="78.160339"
       r="92.310661" />
    <radialGradient
       xlink:href="#linearGradient79"
       id="radialGradient93"
       gradientUnits="userSpaceOnUse"
       gradientTransform="matrix(1,0,0,0.38273929,0,32.370298)"
       cx="103.39578"
       cy="78.160339"
       fx="103.39578"
       fy="78.160339"
       r="92.310661" />
    <radialGradient
       xlink:href="#linearGradient79"
       id="radialGradient94"
       gradientUnits="userSpaceOnUse"
       gradientTransform="matrix(1,0,0,0.38273929,0,32.370298)"
       cx="103.39578"
       cy="78.160339"
       fx="103.39578"
       fy="78.160339"
       r="92.310661" />
    <radialGradient
       xlink:href="#linearGradient79"
       id="radialGradient95"
       gradientUnits="userSpaceOnUse"
       gradientTransform="matrix(1,0,0,0.38273929,0,32.370298)"
       cx="103.39578"
       cy="78.160339"
       fx="103.39578"
       fy="78.160339"
       r="92.310661" />
    <radialGradient
       xlink:href="#linearGradient79"
       id="radialGradient96"
       gradientUnits="userSpaceOnUse"
       gradientTransform="matrix(1,0,0,0.38273929,0,32.370298)"
       cx="103.39578"
       cy="78.160339"
       fx="103.39578"
       fy="78.160339"
       r="92.310661" />
    <radialGradient
       xlink:href="#linearGradient79"
       id="radialGradient97"
       gradientUnits="userSpaceOnUse"
       gradientTransform="matrix(1,0,0,0.38273929,0,32.370298)"
       cx="103.39578"
       cy="78.160339"
       fx="103.39578"
       fy="78.160339"
       r="92.310661" />
    <radialGradient
       xlink:href="#linearGradient79"
       id="radialGradient98"
       gradientUnits="userSpaceOnUse"
       gradientTransform="matrix(1,0,0,0.38273929,0,32.370298)"
       cx="103.39578"
       cy="78.160339"
       fx="103.39578"
       fy="78.160339"
       r="92.310661" />
    <radialGradient
       xlink:href="#linearGradient79"
       id="radialGradient99"
       gradientUnits="userSpaceOnUse"
       gradientTransform="matrix(1,0,0,0.38273929,0,32.370298)"
       cx="103.39578"
       cy="78.160339"
       fx="103.39578"
       fy="78.160339"
       r="92.310661" />
    <radialGradient
       xlink:href="#linearGradient79"
       id="radialGradient100"
       gradientUnits="userSpaceOnUse"
       gradientTransform="matrix(1,0,0,0.38273929,0,32.370298)"
       cx="103.39578"
       cy="78.160339"
       fx="103.39578"
       fy="78.160339"
       r="92.310661" />
  </defs>
  <g
     id="layer7"
     style="opacity:0.5">
    <path
       d="m 31.880225,39.58052 a 35.044643,33.419708 0 0 0 -3.561023,4.137732 35.044643,33.419708 0 0 0 -3.238562,5.777942 35.044643,33.419708 0 0 0 -1.994194,6.269384 35.044643,33.419708 0 0 0 -0.10542,1.02216 35.044643,33.419708 0 0 0 -0.466121,4.512386 35.044643,33.419708 0 0 0 -0.101803,0.98547 35.044643,33.419708 0 0 0 0.673344,6.519499 35.044643,33.419708 0 0 0 1.994194,6.269384 35.044643,33.419708 0 0 0 3.238562,5.777942 35.044643,33.419708 0 0 0 4.35839,5.064282 35.044643,33.419708 0 0 0 5.31027,4.156316 35.044643,33.419708 0 0 0 6.059062,3.088162 35.044643,33.419708 0 0 0 6.573759,1.901681 35.044643,33.419708 0 0 0 6.837309,0.642337 35.044643,33.419708 0 0 0 6.836792,-0.642337 35.044643,33.419708 0 0 0 6.439917,-1.862921 35.044643,33.419708 0 0 0 0.133841,-0.0388 35.044643,33.419708 0 0 0 2.541447,-1.295521 35.044643,33.419708 0 0 0 3.517615,-1.792641 35.044643,33.419708 0 0 0 5.31027,-4.156316 35.044643,33.419708 0 0 0 4.358391,-5.064282 35.044643,33.419708 0 0 0 3.238562,-5.777942 35.044643,33.419708 0 0 0 1.994193,-6.269384 35.044643,33.419708 0 0 0 0.673344,-6.519499 35.044643,33.419708 0 0 0 -0.03514,-0.98547 35.044643,33.419708 0 0 0 -0.04651,-1.295528 35.044643,33.419708 0 0 0 -0.05219,-0.483691 35.044643,33.419708 0 0 0 -0.192236,-1.785938 35.044643,33.419708 0 0 0 -0.171049,-0.947229 35.044643,33.419708 0 0 0 -0.15813,-0.873331 35.044643,33.419708 0 0 0 -0.07751,-0.428398 35.044643,33.419708 0 0 0 -0.56689,-2.216919 35.044643,33.419708 0 0 0 -0.72347,-2.175061 35.044643,33.419708 0 0 0 -0.877983,-2.122868 35.044643,33.419708 0 0 0 -1.027844,-2.060856 35.044643,33.419708 0 0 0 -1.172538,-1.989026 35.044643,33.419708 0 0 0 -1.312582,-1.908411 35.044643,33.419708 0 0 0 -1.445906,-1.817976 35.044643,33.419708 0 0 0 -1.572514,-1.720309 35.044643,33.419708 0 0 0 -1.692403,-1.613338 35.044643,33.419708 0 0 0 -1.803508,-1.49965 35.044643,33.419708 0 0 0 -1.90686,-1.379244 35.044643,33.419708 0 0 0 -2.000912,-1.251087 35.044643,33.419708 0 0 0 -2.08566,-1.118794 35.044643,33.419708 0 0 0 -2.161109,-0.979786 35.044643,33.419708 0 0 0 -2.225704,-0.837158 35.044643,33.419708 0 0 0 -2.280997,-0.690397 35.044643,33.419708 0 0 0 -2.324923,-0.540535 35.044643,33.419708 0 0 0 -2.357996,-0.387574 35.044643,33.419708 0 0 0 -2.380216,-0.233577 35.044643,33.419708 0 0 0 -2.391585,-0.07751 35.044643,33.419708 0 0 0 -6.837309,0.641822 35.044643,33.419708 0 0 0 -6.573759,1.901692 35.044643,33.419708 0 0 0 -6.059062,3.088701 35.044643,33.419708 0 0 0 -4.220931,3.303157 35.308124,48.117976 55.275394 0 0 -1.886706,1.77922 z"
       style="display:inline;opacity:1;fill:url(#linearGradient55);stroke-width:0.338595"
       id="path78" />
    <path
       d="m 115.34903,56.787738 a 35.445469,33.801952 0 0 0 -0.32143,3.111438 35.445469,33.801952 0 0 0 -0.14469,1.400948 35.445469,33.801952 0 0 0 -0.1018,0.98547 35.445469,33.801952 0 0 0 0.68109,6.594429 35.445469,33.801952 0 0 0 2.01693,6.340699 35.445469,33.801952 0 0 0 3.27577,5.844087 35.445469,33.801952 0 0 0 4.408,5.122162 35.445469,33.801952 0 0 0 5.37125,4.203856 35.445469,33.801952 0 0 0 1.76372,0.899154 35.445469,33.801952 0 0 0 2.4722,1.259874 35.445469,33.801952 0 0 0 1.89187,0.964274 35.445469,33.801952 0 0 0 6.64973,1.923898 35.445469,33.801952 0 0 0 6.91482,0.649567 35.445469,33.801952 0 0 0 6.91534,-0.649567 35.445469,33.801952 0 0 0 6.64921,-1.923898 35.445469,33.801952 0 0 0 6.12779,-3.123302 35.445469,33.801952 0 0 0 5.37125,-4.203856 35.445469,33.801952 0 0 0 4.40851,-5.122162 35.445469,33.801952 0 0 0 3.27525,-5.844087 35.445469,33.801952 0 0 0 2.01694,-6.340699 35.445469,33.801952 0 0 0 0.68109,-6.594429 35.445469,33.801952 0 0 0 -0.0351,-0.98547 35.445469,33.801952 0 0 0 -0.0475,-1.321366 35.445469,33.801952 0 0 0 -0.24753,-2.295984 35.445469,33.801952 0 0 0 -0.16175,-0.895036 35.445469,33.801952 0 0 0 -0.24908,-1.379244 35.445469,33.801952 0 0 0 -0.57309,-2.242757 35.445469,33.801952 0 0 0 -0.73226,-2.199866 35.445469,33.801952 0 0 0 -0.8878,-2.147155 35.445469,33.801952 0 0 0 -1.03973,-2.084111 35.445469,33.801952 0 0 0 -1.18597,-2.01228 35.445469,33.801952 0 0 0 -1.32757,-1.929598 35.445469,33.801952 0 0 0 -1.46244,-1.839164 35.445469,33.801952 0 0 0 -1.5906,-1.739946 35.445469,33.801952 0 0 0 -1.71153,-1.631942 35.445469,33.801952 0 0 0 -1.82417,-1.516703 35.445469,33.801952 0 0 0 -1.92857,-1.394747 35.445469,33.801952 0 0 0 -2.02365,-1.265556 35.445469,33.801952 0 0 0 -2.10943,-1.131197 35.445469,33.801952 0 0 0 -2.18591,-0.99167 35.445469,33.801952 0 0 0 -2.25154,-0.84646 35.445469,33.801952 0 0 0 -2.30684,-0.698149 35.445469,33.801952 0 0 0 -2.35179,-0.546737 35.445469,33.801952 0 0 0 -2.38487,-0.392224 35.445469,33.801952 0 0 0 -2.40761,-0.235644 35.445469,33.801952 0 0 0 -2.41897,-0.07906 35.445469,33.801952 0 0 0 -6.91482,0.649572 35.445469,33.801952 0 0 0 -6.64973,1.923397 35.445469,33.801952 0 0 0 -6.12779,3.123841 35.445469,33.801952 0 0 0 -5.37125,4.203361 35.445469,33.801952 0 0 0 -4.408,5.122684 35.445469,33.801952 0 0 0 -3.27577,5.843571 35.445469,33.801952 0 0 0 -2.01693,6.341215 35.445469,33.801952 0 0 0 -0.0615,0.594796 35.445469,33.801952 0 0 0 -0.0517,0.501778 z"
       style="display:inline;opacity:1;fill:url(#linearGradient56);stroke-width:0.338595"
       id="path79" />
  </g>
  <g
     id="layer4"
     style="display:inline;fill:url(#radialGradient80)">
    <path
       d="m 115.0276,59.899176 a 37.108578,22.934362 0 0 0 -0.12919,-0.03152 37.108578,22.934362 0 0 0 -1.71049,-0.33538 37.048767,35.330906 0 0 0 -0.18293,1.76785 h 1.87792 a 35.445469,33.801952 0 0 1 0.14469,-1.400948 z"
       style="fill:url(#radialGradient81);stroke-width:0.290299"
       id="path53" />
    <path
       d="m 115.34903,56.787738 h -1.87792 a 37.048767,35.330906 0 0 0 -0.28319,2.744536 37.108578,22.934362 0 0 1 1.71049,0.33538 37.108578,22.934362 0 0 1 0.12919,0.03152 35.445469,33.801952 0 0 1 0.32143,-3.111438 z"
       style="fill:url(#radialGradient82);stroke-width:0.290299"
       id="path52" />
    <path
       d="m 186.96585,61.300124 h -1.32912 a 35.445469,33.801952 0 0 1 0.0351,0.98547 35.445469,33.801952 0 0 1 -0.68109,6.594429 35.445469,33.801952 0 0 1 -2.01694,6.340699 35.445469,33.801952 0 0 1 -3.27525,5.844087 35.445469,33.801952 0 0 1 -4.40851,5.122162 35.445469,33.801952 0 0 1 -5.37125,4.203856 35.445469,33.801952 0 0 1 -6.12779,3.123302 35.445469,33.801952 0 0 1 -6.64921,1.923898 35.445469,33.801952 0 0 1 -6.91534,0.649567 35.445469,33.801952 0 0 1 -6.91482,-0.649567 35.445469,33.801952 0 0 1 -6.64973,-1.923898 35.445469,33.801952 0 0 1 -1.89187,-0.964274 37.108578,22.934362 0 0 1 -1.11931,1.294481 37.048767,35.330906 0 0 0 2.12338,1.082614 37.048767,35.330906 0 0 0 6.94996,2.010718 37.048767,35.330906 0 0 0 7.22799,0.678507 37.048767,35.330906 0 0 0 7.22798,-0.678507 37.048767,35.330906 0 0 0 6.94996,-2.010718 37.048767,35.330906 0 0 0 6.4053,-3.264892 37.048767,35.330906 0 0 0 5.61412,-4.394023 37.048767,35.330906 0 0 0 4.60748,-5.353665 37.048767,35.330906 0 0 0 3.42356,-6.108154 37.048767,35.330906 0 0 0 2.1084,-6.62802 37.048767,35.330906 0 0 0 0.7121,-6.892602 37.048767,35.330906 0 0 0 -0.0351,-0.98547 z"
       style="fill:url(#radialGradient83);stroke-width:0.290299"
       id="path51" />
    <path
       d="m 186.53177,56.787738 h -1.35186 a 35.445469,33.801952 0 0 1 0.16175,0.895036 35.445469,33.801952 0 0 1 0.24753,2.295984 35.445469,33.801952 0 0 1 0.0475,1.321366 h 1.32912 a 37.048767,35.330906 0 0 0 -0.0512,-1.425752 37.048767,35.330906 0 0 0 -0.2589,-2.399854 37.048767,35.330906 0 0 0 -0.12402,-0.68678 z"
       style="fill:url(#radialGradient84);stroke-width:0.290299"
       id="path50" />
    <path
       d="m 186.53177,56.787738 a 37.048767,35.330906 0 0 1 0.12402,0.68678 37.048767,35.330906 0 0 1 0.2589,2.399854 37.048767,35.330906 0 0 1 0.0512,1.425752 h 8.74055 v -4.512386 z"
       style="fill:url(#radialGradient85);stroke-width:0.212511"
       id="path49" />
    <path
       d="m 115.40071,56.28596 a 35.445469,33.801952 0 0 1 0.0615,-0.594796 35.445469,33.801952 0 0 1 2.01693,-6.341215 35.445469,33.801952 0 0 1 3.27577,-5.843571 35.445469,33.801952 0 0 1 4.408,-5.122684 35.445469,33.801952 0 0 1 5.37125,-4.203361 35.445469,33.801952 0 0 1 6.12779,-3.123841 35.445469,33.801952 0 0 1 6.64973,-1.923397 35.445469,33.801952 0 0 1 6.91482,-0.649572 35.445469,33.801952 0 0 1 2.41897,0.07906 35.445469,33.801952 0 0 1 2.40761,0.235644 35.445469,33.801952 0 0 1 2.38487,0.392224 35.445469,33.801952 0 0 1 2.35179,0.546737 35.445469,33.801952 0 0 1 2.30684,0.698149 35.445469,33.801952 0 0 1 2.25154,0.84646 35.445469,33.801952 0 0 1 2.18591,0.99167 35.445469,33.801952 0 0 1 2.10943,1.131197 35.445469,33.801952 0 0 1 2.02365,1.265556 35.445469,33.801952 0 0 1 1.92857,1.394747 35.445469,33.801952 0 0 1 1.82417,1.516703 35.445469,33.801952 0 0 1 1.71153,1.631942 35.445469,33.801952 0 0 1 1.5906,1.739946 35.445469,33.801952 0 0 1 1.46244,1.839164 35.445469,33.801952 0 0 1 1.32757,1.929598 35.445469,33.801952 0 0 1 1.18597,2.01228 35.445469,33.801952 0 0 1 1.03973,2.084111 35.445469,33.801952 0 0 1 0.8878,2.147155 35.445469,33.801952 0 0 1 0.73226,2.199866 35.445469,33.801952 0 0 1 0.57309,2.242757 35.445469,33.801952 0 0 1 0.24908,1.379244 h 1.35186 a 37.048767,35.330906 0 0 0 -0.30593,-1.690336 37.048767,35.330906 0 0 0 -0.59893,-2.344043 37.048767,35.330906 0 0 0 -0.76533,-2.299601 37.048767,35.330906 0 0 0 -0.9281,-2.244308 37.048767,35.330906 0 0 0 -1.08624,-2.178678 37.048767,35.330906 0 0 0 -1.23972,-2.102714 37.048767,35.330906 0 0 0 -1.38751,-2.017448 37.048767,35.330906 0 0 0 -1.52859,-1.921846 37.048767,35.330906 0 0 0 -1.66295,-1.818494 37.048767,35.330906 0 0 0 -1.78852,-1.705839 37.048767,35.330906 0 0 0 -1.90686,-1.585433 37.048767,35.330906 0 0 0 -2.0159,-1.457792 37.048767,35.330906 0 0 0 -2.11511,-1.322917 37.048767,35.330906 0 0 0 -2.20504,-1.182357 37.048767,35.330906 0 0 0 -2.28461,-1.036112 37.048767,35.330906 0 0 0 -2.35335,-0.885217 37.048767,35.330906 0 0 0 -2.41122,-0.729672 37.048767,35.330906 0 0 0 -2.45773,-0.571541 37.048767,35.330906 0 0 0 -2.49339,-0.409794 37.048767,35.330906 0 0 0 -2.51612,-0.246497 37.048767,35.330906 0 0 0 -2.52853,-0.08268 37.048767,35.330906 0 0 0 -7.22799,0.679028 37.048767,35.330906 0 0 0 -6.94996,2.01073 37.048767,35.330906 0 0 0 -6.40529,3.264917 37.048767,35.330906 0 0 0 -5.61413,4.393531 37.048767,35.330906 0 0 0 -4.60747,5.354195 37.048767,35.330906 0 0 0 -3.42356,6.108154 37.048767,35.330906 0 0 0 -2.1084,6.628019 37.048767,35.330906 0 0 0 -0.0527,0.508496 37.108578,22.934362 0 0 1 1.33583,0.262 37.108578,22.934362 0 0 1 0.5023,0.122473 z"
       style="fill:url(#radialGradient86);stroke-width:0.290299"
       id="path48" />
    <path
       d="m 115.40071,56.28596 a 37.108578,22.934362 0 0 0 -0.5023,-0.122473 37.108578,22.934362 0 0 0 -1.33583,-0.262 37.048767,35.330906 0 0 0 -0.0915,0.886251 h 1.87792 a 35.445469,33.801952 0 0 1 0.0517,-0.501778 z"
       style="fill:url(#radialGradient87);stroke-width:0.290299"
       id="path47" />
    <path
       d="m 130.82044,92.402055 a 37.048767,35.330906 0 0 0 2.83032,1.442281 37.108578,22.934362 0 0 0 1.11931,-1.294481 35.445469,33.801952 0 0 1 -2.4722,-1.259874 37.108578,22.934362 0 0 1 -1.47743,1.112074 z"
       style="fill:url(#radialGradient88);stroke-width:0.290299"
       id="path46" />
    <path
       d="m 130.82044,92.402055 a 37.108578,22.934362 0 0 0 1.47743,-1.112074 35.445469,33.801952 0 0 1 -1.76372,-0.899154 35.445469,33.801952 0 0 1 -5.37125,-4.203856 35.445469,33.801952 0 0 1 -4.408,-5.122162 35.445469,33.801952 0 0 1 -3.27577,-5.844087 35.445469,33.801952 0 0 1 -2.01693,-6.340699 35.445469,33.801952 0 0 1 -0.68109,-6.594429 35.445469,33.801952 0 0 1 0.1018,-0.98547 h -1.87792 a 37.048767,35.330906 0 0 0 -0.1018,0.98547 37.048767,35.330906 0 0 0 0.7121,6.892602 37.048767,35.330906 0 0 0 2.1084,6.62802 37.048767,35.330906 0 0 0 3.42356,6.108154 37.048767,35.330906 0 0 0 4.60747,5.353665 37.048767,35.330906 0 0 0 5.61413,4.394023 37.048767,35.330906 0 0 0 1.45159,0.739997 z"
       style="fill:url(#radialGradient89);stroke-width:0.290299"
       id="path45" />
    <path
       d="m 20.256128,61.300124 h 2.258777 a 35.044643,33.419708 0 0 1 0.466121,-4.512386 h -2.258777 a 37.048767,35.330906 0 0 0 -0.466121,4.512386 z"
       style="fill:url(#radialGradient90);stroke-width:0.290299"
       id="path44" />
    <path
       d="m 20.256128,61.300124 a 37.048767,35.330906 0 0 1 0.466121,-4.512386 h -9.637138 v 4.512386 z"
       style="fill:url(#radialGradient91);stroke-width:0.212511"
       id="path43" />
    <path
       d="m 72.081905,94.569873 a 37.108578,22.934362 0 0 1 -0.465088,-0.35037 37.108578,22.934362 0 0 1 -0.882116,-1.019564 35.044643,33.419708 0 0 1 -6.439917,1.862921 35.044643,33.419708 0 0 1 -6.836792,0.642337 35.044643,33.419708 0 0 1 -6.837309,-0.642337 35.044643,33.419708 0 0 1 -6.573759,-1.901681 35.044643,33.419708 0 0 1 -6.059062,-3.088162 35.044643,33.419708 0 0 1 -5.31027,-4.156316 35.044643,33.419708 0 0 1 -4.35839,-5.064282 35.044643,33.419708 0 0 1 -3.238562,-5.777942 35.044643,33.419708 0 0 1 -1.994194,-6.269384 35.044643,33.419708 0 0 1 -0.673344,-6.519499 35.044643,33.419708 0 0 1 0.101803,-0.98547 h -2.258777 a 37.048767,35.330906 0 0 0 -0.101803,0.98547 37.048767,35.330906 0 0 0 0.712102,6.892602 37.048767,35.330906 0 0 0 2.107881,6.62802 37.048767,35.330906 0 0 0 3.424081,6.108154 37.048767,35.330906 0 0 0 4.60747,5.353665 37.048767,35.330906 0 0 0 5.614128,4.394023 37.048767,35.330906 0 0 0 6.405294,3.264892 37.048767,35.330906 0 0 0 6.949963,2.010718 37.048767,35.330906 0 0 0 7.227983,0.678507 37.048767,35.330906 0 0 0 7.227982,-0.678507 37.048767,35.330906 0 0 0 6.949964,-2.010718 37.048767,35.330906 0 0 0 0.700732,-0.357077 z"
       style="fill:url(#radialGradient92);stroke-width:0.290299"
       id="path42" />
    <path
       d="m 75.015059,93.074362 a 37.108578,22.934362 0 0 1 -1.60507,-1.208704 35.044643,33.419708 0 0 1 -2.541447,1.295521 35.044643,33.419708 0 0 1 -0.133841,0.0388 37.108578,22.934362 0 0 0 0.882116,1.019564 37.108578,22.934362 0 0 0 0.465088,0.35037 37.048767,35.330906 0 0 0 2.933154,-1.495511 z"
       style="fill:url(#radialGradient93);stroke-width:0.290299"
       id="path41" />
    <path
       d="m 94.216471,61.300124 h -1.749247 a 35.044643,33.419708 0 0 1 0.03514,0.98547 35.044643,33.419708 0 0 1 -0.673344,6.519499 35.044643,33.419708 0 0 1 -1.994193,6.269384 35.044643,33.419708 0 0 1 -3.238562,5.777942 35.044643,33.419708 0 0 1 -4.358391,5.064282 35.044643,33.419708 0 0 1 -5.31027,4.156316 35.044643,33.419708 0 0 1 -3.517615,1.792641 37.108578,22.934362 0 0 0 1.60507,1.208704 37.048767,35.330906 0 0 0 2.771407,-1.412304 37.048767,35.330906 0 0 0 5.614128,-4.394023 37.048767,35.330906 0 0 0 4.607471,-5.353665 37.048767,35.330906 0 0 0 3.423563,-6.108154 37.048767,35.330906 0 0 0 2.108399,-6.62802 37.048767,35.330906 0 0 0 0.712101,-6.892602 37.048767,35.330906 0 0 0 -0.03566,-0.98547 z"
       style="fill:url(#radialGradient94);stroke-width:0.290299"
       id="path40" />
    <path
       d="m 94.092448,59.19741 a 37.108578,22.934362 0 0 0 -1.723926,0.323495 35.044643,33.419708 0 0 1 0.05219,0.483691 35.044643,33.419708 0 0 1 0.04651,1.295528 h 1.749247 a 37.048767,35.330906 0 0 0 -0.05116,-1.425752 37.048767,35.330906 0 0 0 -0.07286,-0.676962 z"
       style="fill:url(#radialGradient95);stroke-width:0.290299"
       id="path39" />
    <path
       d="m 93.782906,56.787738 h -1.777669 a 35.044643,33.419708 0 0 1 0.171049,0.947229 35.044643,33.419708 0 0 1 0.192236,1.785938 37.108578,22.934362 0 0 1 1.723926,-0.323495 37.048767,35.330906 0 0 0 -0.185518,-1.722892 37.048767,35.330906 0 0 0 -0.124024,-0.68678 z"
       style="fill:url(#radialGradient96);stroke-width:0.290299"
       id="path38" />
    <path
       d="m 93.782906,56.787738 a 37.048767,35.330906 0 0 1 0.124024,0.68678 37.048767,35.330906 0 0 1 0.185518,1.722892 37.108578,22.934362 0 0 1 1.139465,-0.213423 37.108578,22.934362 0 0 1 7.239347,-0.440284 37.108578,22.934362 0 0 1 2.53267,0.05323 37.108578,22.934362 0 0 1 2.52077,0.160197 37.108578,22.934362 0 0 1 2.49701,0.266134 37.108578,22.934362 0 0 1 2.46135,0.37052 37.108578,22.934362 0 0 1 0.70486,0.138493 37.048767,35.330906 0 0 1 0.28319,-2.744536 z"
       style="fill:url(#radialGradient97);stroke-width:0.264583"
       id="path37" />
    <path
       d="m 93.566382,55.591946 a 37.108578,22.934362 0 0 0 -1.719275,0.322461 35.044643,33.419708 0 0 1 0.15813,0.873331 h 1.777669 a 37.048767,35.330906 0 0 0 -0.216524,-1.195792 z"
       style="fill:url(#radialGradient98);stroke-width:0.290299"
       id="path36" />
    <path
       d="m 93.566382,55.591946 a 37.048767,35.330906 0 0 1 0.216524,1.195792 h 19.688204 a 37.048767,35.330906 0 0 1 0.0915,-0.886251 37.108578,22.934362 0 0 0 -1.07952,-0.211873 37.108578,22.934362 0 0 0 -2.46135,-0.37052 37.108578,22.934362 0 0 0 -2.49701,-0.266134 37.108578,22.934362 0 0 0 -2.52077,-0.160197 37.108578,22.934362 0 0 0 -2.53267,-0.05323 37.108578,22.934362 0 0 0 -7.239347,0.440283 37.108578,22.934362 0 0 0 -1.665531,0.312126 z"
       style="fill:url(#radialGradient99);stroke-width:0.264583"
       id="path35" />
    <path
       d="m 57.203227,26.954417 a 37.048767,35.330906 0 0 0 -7.227983,0.679028 37.048767,35.330906 0 0 0 -6.949963,2.01073 37.048767,35.330906 0 0 0 -6.405294,3.264917 37.048767,35.330906 0 0 0 -5.614128,4.393531 37.048767,35.330906 0 0 0 -4.60747,5.354195 37.048767,35.330906 0 0 0 -3.424081,6.108154 37.048767,35.330906 0 0 0 -2.107881,6.628019 37.048767,35.330906 0 0 0 -0.144178,1.394747 h 2.258777 a 35.044643,33.419708 0 0 1 0.10542,-1.02216 35.044643,33.419708 0 0 1 1.994194,-6.269384 35.044643,33.419708 0 0 1 3.238562,-5.777942 35.044643,33.419708 0 0 1 4.35839,-5.064291 35.044643,33.419708 0 0 1 5.31027,-4.155818 35.044643,33.419708 0 0 1 6.059062,-3.088701 35.044643,33.419708 0 0 1 6.573759,-1.901692 35.044643,33.419708 0 0 1 6.837309,-0.641822 35.044643,33.419708 0 0 1 2.391585,0.07751 35.044643,33.419708 0 0 1 2.380216,0.233577 35.044643,33.419708 0 0 1 2.357996,0.387574 35.044643,33.419708 0 0 1 2.324923,0.540535 35.044643,33.419708 0 0 1 2.280997,0.690397 35.044643,33.419708 0 0 1 2.225704,0.837158 35.044643,33.419708 0 0 1 2.161109,0.979786 35.044643,33.419708 0 0 1 2.08566,1.118794 35.044643,33.419708 0 0 1 2.000912,1.251087 35.044643,33.419708 0 0 1 1.90686,1.379244 35.044643,33.419708 0 0 1 1.803508,1.49965 35.044643,33.419708 0 0 1 1.692403,1.613338 35.044643,33.419708 0 0 1 1.572514,1.720309 35.044643,33.419708 0 0 1 1.445906,1.817976 35.044643,33.419708 0 0 1 1.312582,1.908411 35.044643,33.419708 0 0 1 1.172538,1.989026 35.044643,33.419708 0 0 1 1.027844,2.060856 35.044643,33.419708 0 0 1 0.877983,2.122868 35.044643,33.419708 0 0 1 0.72347,2.175061 35.044643,33.419708 0 0 1 0.56689,2.216919 35.044643,33.419708 0 0 1 0.07751,0.428398 37.108578,22.934362 0 0 1 1.719275,-0.322461 37.048767,35.330906 0 0 0 -0.0894,-0.494544 37.048767,35.330906 0 0 0 -0.59893,-2.344043 A 37.048767,35.330906 0 0 0 92.112724,50.453758 37.048767,35.330906 0 0 0 91.184615,48.20945 37.048767,35.330906 0 0 0 90.098376,46.030772 37.048767,35.330906 0 0 0 88.858142,43.928058 37.048767,35.330906 0 0 0 87.47063,41.91061 37.048767,35.330906 0 0 0 85.942041,39.988764 37.048767,35.330906 0 0 0 84.27961,38.17027 37.048767,35.330906 0 0 0 82.491089,36.464431 37.048767,35.330906 0 0 0 80.584229,34.878998 37.048767,35.330906 0 0 0 78.568331,33.421206 37.048767,35.330906 0 0 0 76.453215,32.098289 37.048767,35.330906 0 0 0 74.248181,30.915932 37.048767,35.330906 0 0 0 71.963566,29.87982 37.048767,35.330906 0 0 0 69.610221,28.994603 37.048767,35.330906 0 0 0 67.198999,28.264931 37.048767,35.330906 0 0 0 64.740751,27.69339 37.048767,35.330906 0 0 0 62.24788,27.283596 37.048767,35.330906 0 0 0 59.731238,27.037099 37.048767,35.330906 0 0 0 57.203227,26.954419 Z"
       style="fill:url(#radialGradient100);stroke-width:0.290299"
       id="path34" />
  </g>
  <metadata
     id="metadata1">
    <rdf:RDF>
      <cc:Work
         rdf:about="">
        <dc:title>Sunglasses Filter</dc:title>
      </cc:Work>
    </rdf:RDF>
  </metadata>
</svg>
